<svg xmlns="http://www.w3.org/2000/svg" viewBox="0 0 512 512" role="img" aria-label="Peso Boda 2027">
  <defs>
    <linearGradient id="bg" x1="64" x2="448" y1="52" y2="460" gradientUnits="userSpaceOnUse">
      <stop offset="0" stop-color="#fffdf8"/>
      <stop offset=".46" stop-color="#e6f3ef"/>
      <stop offset="1" stop-color="#ffe3dc"/>
    </linearGradient>
    <linearGradient id="ring" x1="116" x2="396" y1="120" y2="390" gradientUnits="userSpaceOnUse">
      <stop offset="0" stop-color="#137c74"/>
      <stop offset=".52" stop-color="#137c74"/>
      <stop offset="1" stop-color="#d95f73"/>
    </linearGradient>
    <filter id="shadow" x="-20%" y="-20%" width="140%" height="150%">
      <feDropShadow dx="0" dy="18" stdDeviation="18" flood-color="#18211f" flood-opacity=".22"/>
    </filter>
  </defs>
  <rect width="512" height="512" rx="116" fill="#137c74"/>
  <rect x="28" y="28" width="456" height="456" rx="96" fill="url(#bg)"/>
  <path d="M91 322c50-70 103-92 159-65 45 22 78 18 117-11 34-26 64-29 88-10 24 19 28 55 9 86-25 41-79 61-164 61H116c-31 0-43-32-25-61Z" fill="#fff" opacity=".78"/>
  <g filter="url(#shadow)">
    <circle cx="190" cy="151" r="45" fill="#137c74"/>
    <circle cx="322" cy="151" r="45" fill="#d95f73"/>
    <path d="M132 295c11-67 31-101 58-101 28 0 47 34 58 101" fill="#fff7f2" stroke="#18211f" stroke-width="13" stroke-linecap="round"/>
    <path d="M264 295c11-67 30-101 58-101 27 0 47 34 58 101" fill="#fff7f2" stroke="#18211f" stroke-width="13" stroke-linecap="round"/>
    <path d="M178 322h156c24 0 44 20 44 44v18H134v-18c0-24 20-44 44-44Z" fill="url(#ring)"/>
    <path d="M191 359h130" stroke="#fffdf8" stroke-width="13" stroke-linecap="round"/>
    <path d="M256 322l27-43h-54l27 43Z" fill="#18211f"/>
    <path d="M214 280h84" stroke="#18211f" stroke-width="14" stroke-linecap="round"/>
  </g>
  <path d="M411 108c20 0 20-26 0-26 0-20-26-20-26 0-20 0-20 26 0 26 0 20 26 20 26 0Z" fill="#c5902d"/>
  <path d="M130 126c14 0 14-18 0-18 0-14-18-14-18 0-14 0-14 18 0 18 0 14 18 14 18 0Z" fill="#d95f73"/>
</svg>
