<svg xmlns="http://www.w3.org/2000/svg" viewBox="0 0 520 420" role="img" aria-label="Ilustracion de pareja y balanza">
  <defs>
    <linearGradient id="bg" x1="0" x2="1" y1="0" y2="1">
      <stop offset="0" stop-color="#e8f5f1"/>
      <stop offset="1" stop-color="#ffe7df"/>
    </linearGradient>
    <linearGradient id="scale" x1="0" x2="1">
      <stop offset="0" stop-color="#137c74"/>
      <stop offset="1" stop-color="#d95f73"/>
    </linearGradient>
  </defs>
  <rect width="520" height="420" rx="42" fill="url(#bg)"/>
  <path d="M85 312c62-74 115-96 170-64 43 25 76 21 112-8 33-27 61-31 86-16 27 16 38 47 24 81-16 40-63 59-143 58H93c-22 0-26-25-8-51Z" fill="#fff" opacity=".72"/>
  <circle cx="178" cy="119" r="44" fill="#137c74"/>
  <circle cx="338" cy="119" r="44" fill="#d95f73"/>
  <path d="M119 260c11-68 31-103 59-103s49 35 60 103" fill="#fff7f2" stroke="#17201b" stroke-width="10" stroke-linecap="round"/>
  <path d="M279 260c11-68 31-103 59-103s49 35 60 103" fill="#fff7f2" stroke="#17201b" stroke-width="10" stroke-linecap="round"/>
  <path d="M203 289h114c22 0 40 18 40 40v13H163v-13c0-22 18-40 40-40Z" fill="url(#scale)"/>
  <path d="M207 324h106" stroke="#fff" stroke-width="10" stroke-linecap="round"/>
  <path d="M260 289l24-38h-48l24 38Z" fill="#17201b"/>
  <path d="M219 251h82" stroke="#17201b" stroke-width="12" stroke-linecap="round"/>
  <path d="M410 80c20 0 20-25 0-25 0-20-25-20-25 0-20 0-20 25 0 25 0 20 25 20 25 0Z" fill="#ffc857"/>
  <path d="M109 103c14 0 14-18 0-18 0-14-18-14-18 0-14 0-14 18 0 18 0 14 18 14 18 0Z" fill="#d95f73"/>
</svg>
